<?xml version="1.0" standalone="no"?>
<!DOCTYPE svg PUBLIC "-//W3C//DTD SVG 20010904//EN"
 "http://www.w3.org/TR/2001/REC-SVG-20010904/DTD/svg10.dtd">
<svg version="1.0" xmlns="http://www.w3.org/2000/svg"
 width="700.000000pt" height="700.000000pt" viewBox="0 0 700.000000 700.000000"
 preserveAspectRatio="xMidYMid meet">
<metadata>
Created by potrace 1.14, written by Peter Selinger 2001-2017
</metadata>
<g transform="translate(0.000000,700.000000) scale(0.100000,-0.100000)"
fill="#000000" stroke="none">
<path d="M4331 6228 c-81 -14 -146 -67 -187 -153 -22 -47 -36 -86 -133 -355
-21 -58 -134 -367 -251 -688 -117 -321 -211 -585 -209 -586 2 -2 31 -13 64
-24 114 -40 414 -150 424 -156 10 -7 21 18 91 216 28 79 55 152 60 163 12 30
69 185 150 410 39 110 76 211 82 225 10 24 95 260 185 510 53 146 58 213 22
287 -32 65 -61 96 -122 126 -58 30 -107 37 -176 25z"/>
<path d="M3267 5976 c-46 -17 -99 -56 -131 -99 -13 -18 -63 -140 -110 -272
-48 -132 -91 -249 -97 -260 -6 -12 -11 -27 -13 -35 -2 -8 -6 -22 -9 -30 -8
-19 -106 -287 -117 -320 -11 -35 -86 -238 -101 -277 -9 -21 -10 -36 -4 -41 6
-5 51 -23 100 -41 50 -18 104 -39 122 -47 17 -8 35 -14 40 -14 4 0 55 -18 113
-40 58 -22 108 -40 112 -40 3 0 16 26 28 58 11 31 25 66 29 77 5 11 24 61 41
110 56 159 201 557 287 790 33 89 57 173 60 207 17 189 -172 337 -350 274z"/>
<path d="M2120 5402 c-42 -12 -67 -28 -105 -66 -49 -50 -52 -57 -171 -384
-105 -289 -119 -334 -105 -341 9 -5 36 -16 61 -24 25 -9 130 -47 235 -85 l190
-70 23 62 c13 33 52 142 88 241 36 99 79 216 95 260 40 105 45 158 25 229 -42
142 -188 220 -336 178z"/>
<path d="M4979 5379 c-80 -12 -156 -64 -191 -131 -15 -28 -182 -479 -318 -858
-41 -114 -102 -282 -154 -425 -18 -49 -72 -198 -120 -330 -47 -132 -90 -249
-95 -260 -5 -11 -21 -51 -34 -90 -13 -38 -84 -233 -156 -431 -72 -199 -131
-366 -131 -371 0 -5 66 -32 148 -62 81 -29 193 -70 249 -90 l101 -38 42 116
c52 143 134 369 205 561 45 123 360 990 512 1410 76 210 100 274 108 295 4 11
9 25 11 30 1 6 30 84 63 175 34 91 63 189 66 218 15 166 -138 307 -306 281z"/>
<path d="M2581 4383 c-7 -21 -24 -65 -36 -98 -13 -33 -56 -150 -95 -260 -40
-110 -88 -243 -107 -295 -19 -52 -45 -124 -58 -160 -13 -36 -35 -96 -50 -135
-14 -38 -30 -81 -34 -95 -5 -14 -25 -70 -45 -125 -20 -55 -55 -149 -77 -210
-22 -60 -49 -132 -59 -160 -144 -384 -440 -1219 -443 -1249 -8 -77 37 -169
101 -209 99 -63 217 -79 297 -41 80 38 97 71 246 479 76 209 140 387 143 395
3 8 18 51 34 95 17 44 69 186 116 315 117 322 116 321 228 625 54 149 100 275
102 280 2 6 6 17 9 25 3 8 15 42 26 75 12 33 25 69 30 80 5 11 49 133 99 270
60 169 86 252 78 256 -10 6 -483 179 -489 179 -2 0 -9 -17 -16 -37z"/>
<path d="M1631 4368 c-5 -13 -68 -187 -141 -388 -73 -201 -147 -405 -165 -455
-123 -335 -127 -347 -122 -411 5 -72 28 -125 75 -172 117 -116 318 -98 408 38
22 33 454 1199 454 1225 0 9 -471 186 -493 185 -4 0 -11 -10 -16 -22z"/>
<path d="M3460 4216 c0 -12 -58 -179 -81 -231 -4 -11 -36 -96 -70 -190 -33
-93 -77 -213 -96 -265 -19 -52 -45 -124 -57 -160 -36 -101 -156 -430 -173
-475 -21 -56 -281 -769 -302 -830 -10 -27 -93 -257 -186 -510 -121 -331 -168
-473 -170 -510 -9 -201 199 -339 379 -251 81 40 116 87 166 224 23 64 53 144
65 177 13 33 82 224 155 425 72 201 135 374 140 385 10 22 450 1234 482 1325
10 30 23 64 28 75 7 17 154 422 212 584 10 29 18 54 16 56 -4 3 -231 86 -385
141 -89 31 -123 40 -123 30z"/>
<path d="M5538 4205 c-2 -2 -21 -5 -43 -7 -81 -9 -164 -69 -199 -143 -9 -19
-113 -297 -229 -618 l-213 -583 176 -63 c96 -34 184 -67 195 -72 11 -5 46 -18
77 -28 l57 -19 9 26 c74 199 162 440 203 557 22 61 43 119 48 130 5 11 24 61
41 110 18 50 57 158 86 240 45 124 54 160 53 208 -4 99 -57 185 -140 228 -35
17 -114 40 -121 34z"/>
<path d="M4690 2403 c-45 -126 -98 -271 -118 -323 -48 -130 -50 -212 -7 -289
105 -191 389 -183 476 13 22 50 228 614 232 635 1 9 -56 34 -173 78 -219 80
-312 113 -320 113 -4 0 -44 -102 -90 -227z"/>
<path d="M3577 1937 c-64 -177 -128 -353 -143 -392 -14 -38 -29 -81 -34 -95
-4 -14 -21 -61 -38 -105 -119 -321 -125 -350 -98 -432 51 -152 218 -227 364
-163 88 39 116 78 177 247 20 54 40 107 45 118 8 18 211 577 310 855 l38 106
-156 56 c-87 31 -200 72 -252 91 l-96 35 -117 -321z"/>
</g>
</svg>
