<svg width="300" height="300" viewBox="0 0 300 300" fill="none" xmlns="http://www.w3.org/2000/svg">
<path d="M111.194 110.517L132.807 118.384L89.7122 236.785C87.8233 241.975 82.0849 244.651 76.8951 242.762L74.076 241.736C68.8863 239.847 66.2104 234.108 68.0993 228.919L111.194 110.517Z" fill="#540375"/>
<path d="M148.612 118.816L170.225 126.682L121.829 259.649C119.657 265.617 113.058 268.694 107.09 266.522V266.522C101.121 264.35 98.0442 257.75 100.216 251.782L148.612 118.816Z" fill="#FF7000"/>
<path d="M132.912 50.847C135.084 44.8787 141.683 41.8015 147.652 43.9738V43.9738C153.62 46.146 156.697 52.7452 154.525 58.7135L136.227 108.987L114.614 101.121L132.912 50.847Z" fill="#212325"/>
<path d="M70.3552 111.616L91.9682 119.482L73.6701 169.756C71.4978 175.724 64.8986 178.802 58.9304 176.629V176.629C52.9621 174.457 49.8849 167.858 52.0571 161.89L70.3552 111.616Z" fill="#10A19D"/>
<path d="M83.5231 75.4379C85.6953 69.4697 92.2945 66.3924 98.2628 68.5647V68.5647C104.231 70.737 107.308 77.3362 105.136 83.3044L95.3884 110.086L73.7755 102.219L83.5231 75.4379Z" fill="#212325"/>
<path d="M204.329 76.8405C206.501 70.8723 213.1 67.795 219.068 69.9673V69.9673C225.037 72.1396 228.114 78.7387 225.942 84.707L183.36 201.699L161.747 193.832L204.329 76.8405Z" fill="#212325"/>
<path d="M158.327 203.229L179.94 211.096L161.642 261.369C159.469 267.337 152.87 270.415 146.902 268.242V268.242C140.934 266.07 137.857 259.471 140.029 253.503L158.327 203.229Z" fill="#FFBF00"/>
<path d="M226.356 127.425C228.529 121.457 235.128 118.379 241.096 120.552V120.552C247.064 122.724 250.142 129.323 247.969 135.291L229.671 185.565L208.058 177.698L226.356 127.425Z" fill="#212325"/>
<path d="M204.638 187.095L226.251 194.962L216.503 221.743C214.331 227.711 207.732 230.789 201.764 228.616V228.616C195.795 226.444 192.718 219.845 194.89 213.877L204.638 187.095Z" fill="#4B56D2"/>
<path d="M177.171 40.3514C179.343 34.3831 185.942 31.3059 191.911 33.4782V33.4782C197.879 35.6504 200.956 42.2496 198.784 48.2179L173.645 117.285L152.033 109.419L177.171 40.3514Z" fill="#212325"/>
</svg>
